<?xml version="1.0" encoding="UTF-8" standalone="no"?>
<svg width="34px" height="34px" viewBox="0 0 34 34" version="1.1" xmlns="http://www.w3.org/2000/svg" xmlns:xlink="http://www.w3.org/1999/xlink">
    <!-- Generator: sketchtool 3.7.1 (28215) - http://www.bohemiancoding.com/sketch -->
    <title>7C64E391-FD7F-4720-B44A-4EDE7AE78890</title>
    <desc>Created with sketchtool.</desc>
    <defs></defs>
    <g id="Page-1" stroke="none" stroke-width="1" fill="none" fill-rule="evenodd">
        <g id="juejin_chrome_extension_designer" transform="translate(-537.000000, -139.000000)">
            <g id="Group-13" transform="translate(537.000000, 139.000000)">
                <rect id="Rectangle-262-Copy-2" fill="#005CFE" x="0" y="0" width="34" height="34" rx="1"></rect>
                <path d="M11.9390586,21.6781215 C12.2463456,21.6781215 12.5380533,21.6507235 12.8125702,21.589481 C13.0908475,21.5282385 13.3379664,21.432077 13.5464058,21.2891778 C13.7548452,21.152188 13.9272912,20.9641628 14.0529995,20.7245649 C14.1787078,20.4876531 14.2388759,20.1798289 14.2388759,19.8075389 C14.2388759,19.0785382 14.0336598,18.560663 13.6259136,18.2463922 C13.217093,17.9364192 12.6718199,17.7822385 12.0013756,17.7822385 L8.6147724,17.7822385 L8.6147724,21.6781215 L11.9390586,21.6781215 L11.9390586,21.6781215 Z M11.7671498,15.6559417 C12.3188696,15.6559417 12.7755023,15.5248612 13.1375852,15.2589398 C13.4959076,14.9978533 13.6699653,14.5653953 13.6699653,13.9723099 C13.6699653,13.6435344 13.611946,13.3711664 13.4959076,13.1600409 C13.3761087,12.9489154 13.217093,12.7834532 13.0161746,12.667952 C12.8168679,12.5476158 12.5917748,12.4643475 12.3301511,12.4197587 C12.0738996,12.3692605 11.8047549,12.3499207 11.5291636,12.3499207 L8.6147724,12.3499207 L8.6147724,15.6559417 L11.7671498,15.6559417 L11.7671498,15.6559417 Z M12.1700611,9.93997438 C12.8464147,9.93997438 13.4572281,9.99853081 14.0153945,10.1194042 C14.5703376,10.2370543 15.0441612,10.4336749 15.4443863,10.7033568 C15.8387021,10.9725015 16.1470635,11.3308239 16.3678588,11.7820845 C16.583282,12.2268985 16.6917995,12.7834532 16.6917995,13.4420788 C16.6917995,14.1544258 16.5300978,14.7491228 16.2066944,15.224558 C15.8811421,15.6994561 15.4024835,16.0889369 14.7631977,16.391389 C15.6340232,16.6417311 16.2786812,17.0827846 16.7063043,17.7091773 C17.1360763,18.3398676 17.3461273,19.0951919 17.3461273,19.979985 C17.3461273,20.6977042 17.2086003,21.3149642 16.9346206,21.834451 C16.6574177,22.3603845 16.2802928,22.7869332 15.8156019,23.1157087 C15.3471504,23.4477076 14.808861,23.691066 14.2061058,23.8495444 C13.6097972,24.0080228 12.9909255,24.0875306 12.3570119,24.0875306 L5.5,24.0875306 L5.5,9.93997438 L12.1700611,9.93997438 Z M21.7867462,21.6308466 C22.2079228,22.0423532 22.8171246,22.2497182 23.6062934,22.2497182 C24.1735924,22.2497182 24.6640696,22.1062818 25.0755763,21.8199462 C25.4833225,21.5346851 25.7315158,21.2290098 25.8276773,20.9120529 L28.3053127,20.9120529 C27.9072364,22.1449613 27.3028696,23.0254566 26.4782446,23.5551506 C25.6638267,24.0875306 24.669979,24.3529148 23.5122807,24.3529148 C22.7053838,24.3529148 21.9790692,24.2218344 21.3274274,23.9650456 C20.6757857,23.7044963 20.1310497,23.3391902 19.6728053,22.8632177 C19.2263797,22.3850964 18.879876,21.8199462 18.6327572,21.1564857 C18.3883243,20.4962485 18.2647649,19.765099 18.2647649,18.9727069 C18.2647649,18.2066383 18.3931593,17.491068 18.6429642,16.8297564 C18.8986786,16.1662959 19.2516288,15.5936247 19.7157825,15.1133545 C20.1815479,14.6303983 20.7332677,14.2495129 21.3757768,13.9712355 C22.0188231,13.6934954 22.7274097,13.5543567 23.5122807,13.5543567 C24.3788085,13.5543567 25.1378932,13.7208933 25.7884606,14.0609504 C26.436879,14.3956353 26.9681846,14.849582 27.3861379,15.4179554 C27.8035539,15.9857916 28.1006338,16.6347473 28.2865102,17.3621364 C28.4702377,18.0889883 28.5352407,18.848073 28.4820564,19.6431512 L21.0899784,19.6431512 C21.0899784,20.4527341 21.3639581,21.2193399 21.7867462,21.6308466 Z M25.0197059,16.249027 C24.685021,15.8788859 24.1187964,15.6785047 23.427938,15.6785047 C22.9782891,15.6785047 22.6059991,15.754252 22.308382,15.9084327 C22.0172115,16.0604645 21.7781508,16.2501014 21.5960349,16.4730456 C21.4144563,16.6997503 21.2903596,16.938811 21.2183728,17.1945253 C21.146386,17.4437931 21.1034088,17.6699606 21.0899784,17.8698045 L25.6681244,17.8698045 C25.6009725,17.1520853 25.3554653,16.6218542 25.0197059,16.249027 Z M20.5146212,12.2854549 L26.249391,12.2854549 L26.249391,10.8892332 L20.5146212,10.8892332 L20.5146212,12.2854549 Z" id="Combined-Shape" fill="#FFFFFF"></path>
            </g>
        </g>
    </g>
</svg>