<?xml version="1.0" encoding="UTF-8" standalone="no"?>
<svg width="34px" height="34px" viewBox="0 0 34 34" version="1.1" xmlns="http://www.w3.org/2000/svg" xmlns:xlink="http://www.w3.org/1999/xlink">
    <!-- Generator: sketchtool 3.7.1 (28215) - http://www.bohemiancoding.com/sketch -->
    <title>86AE77CD-2602-469B-8F6C-1A7B56846525</title>
    <desc>Created with sketchtool.</desc>
    <defs></defs>
    <g id="Page-1" stroke="none" stroke-width="1" fill="none" fill-rule="evenodd">
        <g id="juejin_chrome_extension_designer" transform="translate(-537.000000, -94.000000)">
            <g id="Group-12" transform="translate(537.000000, 94.000000)">
                <rect id="Rectangle-262-Copy" fill="#EA4C89" x="0" y="0" width="34" height="34" rx="1"></rect>
                <g id="Group-2" transform="translate(5.000000, 5.000000)">
                    <path d="M11.9533213,23.1598829 C5.80539094,23.1598829 0.821418815,18.1759108 0.821418815,12.0279805 C0.821418815,5.88005017 5.80539094,0.896078049 11.9533213,0.896078049 C18.1013352,0.896078049 23.0852237,5.88005017 23.0852237,12.0279805 C23.0852237,18.1759108 18.1013352,23.1598829 11.9533213,23.1598829 Z" id="Fill-1" fill="#EB4C89"></path>
                    <path d="M19.9034843,5.51800976 C19.6877352,5.80943833 17.9727805,8.0049784 14.188892,9.54783554 C14.4269686,10.0346091 14.6552613,10.5298286 14.8678328,11.0282258 C14.9430941,11.204839 15.0165157,11.380616 15.0882648,11.5556404 C18.4935889,11.1280725 21.8770871,11.8133686 22.2145087,11.884616 C22.1920139,9.47232334 21.3288502,7.25721533 19.9034843,5.51800976 M13.401993,8.02797491 C17.0411289,6.66582857 18.5817282,4.59789826 18.765784,4.33607247 C16.9585087,2.73484599 14.582007,1.76071359 11.9816446,1.76071359 C11.1558606,1.76071359 10.3529059,1.85955679 9.58331707,2.04478328 C9.86621603,2.42309686 11.7250035,4.95095749 13.401993,8.02797491 Z M1.96369338,9.8879331 C2.42136585,9.89395401 6.6377561,9.91218397 11.4249617,8.64269268 C9.72924042,5.63232334 7.90039024,3.10136864 7.63062021,2.73183554 C4.76742857,4.08051847 2.62724739,6.71642091 1.96369338,9.8879331 M4.37841115,18.8149296 C4.61021603,18.4186369 7.41896864,13.7742606 12.6971289,12.0704279 C12.8305087,12.0273617 12.9649756,11.9868878 13.100446,11.948839 C12.8434704,11.3682397 12.5636655,10.7869714 12.2706481,10.2144 C7.15981882,11.7418704 2.20043206,11.6780655 1.7527108,11.6689505 C1.7495331,11.7726439 1.74744251,11.8766718 1.74744251,11.9812014 C1.74744251,14.6062328 2.74390244,17.0029714 4.37841115,18.8149296 M15.9792753,21.3894523 C15.8269965,20.4927554 15.2328502,17.3675707 13.7960279,13.6388739 C13.7735331,13.6464836 13.7510383,13.6537589 13.7285436,13.6616195 C7.95608362,15.6704279 5.88397213,19.6681422 5.69974913,20.0441143 C7.43502439,21.3954732 9.61576307,22.2016892 11.9816446,22.2016892 C13.3993171,22.2016892 14.7505087,21.9121003 15.9792753,21.3894523 M22.0863136,13.603501 C21.7361812,13.4931178 18.9185645,12.653954 15.7115958,13.1666509 C17.0501603,16.8400725 17.594885,19.831961 17.6997491,20.4537031 C19.9957213,18.9033199 21.6301463,16.447292 22.0863136,13.603501 M11.9816446,23.9311944 C5.3749547,23.9311944 4.18118466e-05,18.5634732 4.18118466e-05,11.9656474 C4.18118466e-05,5.36773798 5.3749547,1.67247388e-05 11.9816446,1.67247388e-05 C18.5882509,1.67247388e-05 23.9631638,5.36773798 23.9631638,11.9656474 C23.9631638,18.5634732 18.5882509,23.9311944 11.9816446,23.9311944" id="Fill-3" fill="#C32361"></path>
                </g>
            </g>
        </g>
    </g>
</svg>